<?xml version='1.0' encoding='UTF-8'?>
<mxfile host="py-mxgraph">
  <diagram id="idunno" name="Page-1">
    <mxGraphModel>
      <root>
        <mxCell id="0" />
        <mxCell id="1" parent="0" />
        <mxCell id="idunno-0" parent="1" style="ellipse;whiteSpace=wrap;html=1;aspect=fixed;" value="Hello!" vertex="1">
          <mxGeometry x="100" y="200" width="40" height="30" as="geometry" />
        </mxCell>
        <mxCell id="idunno-1" parent="1" style="ellipse;whiteSpace=wrap;html=1;aspect=fixed;" value="Goodbye!" vertex="1">
          <mxGeometry x="400" y="200" width="40" height="30" as="geometry" />
        </mxCell>

        <mxCell id="idunno-2" value="TEST" style="edgeStyle=orthogonalEdgeStyle;orthogonalLoop=1;jettySize=auto;html=1;" parent="1" source="idunno-0" target="idunno-1" edge="1">
          <mxGeometry relative="1" as="geometry" />
        </mxCell>





         <mxCell id="src" value="Gi1/1" style="labelBackgroundColor=#ffffff;;" vertex="1" connectable="0" parent="idunno-2">
               <mxGeometry x="-0.8" relative="1" as="geometry">
                 <mxPoint as="offset" />
               </mxGeometry>
        </mxCell>
         <mxCell id="dst" value="G000" style="labelBackgroundColor=#ffffff;;" vertex="1" connectable="0" parent="idunno-2">
               <mxGeometry x="0.8" relative="1" as="geometry">
                 <mxPoint as="offset" />
               </mxGeometry>
        </mxCell>
      </root>
    </mxGraphModel>
  </diagram>
</mxfile>
